<svg xmlns="http://www.w3.org/2000/svg" viewBox="0 0 24.69 28"><defs><style>.cls-1{fill:#1572b6;}.cls-2{fill:#33a9dc;}.cls-3{fill:#fff;}.cls-4{fill:#ebebeb;}</style></defs><title>2Asset 1</title><g id="Layer_2" data-name="Layer 2"><g id="Layer_1-2" data-name="Layer 1"><polygon class="cls-1" points="2.25 25.2 0 0 24.69 0 22.44 25.2 12.33 28 2.25 25.2"/><polygon class="cls-2" points="12.34 25.86 20.51 23.59 22.44 2.06 12.34 2.06 12.34 25.86"/><polygon class="cls-3" points="12.34 11.19 16.43 11.19 16.72 8.03 12.34 8.03 12.34 4.93 12.36 4.93 20.09 4.93 20.02 5.76 19.26 14.28 12.34 14.28 12.34 11.19"/><polygon class="cls-4" points="12.36 19.22 12.35 19.22 8.91 18.29 8.69 15.83 7.01 15.83 5.58 15.83 6.02 20.68 12.35 22.44 12.36 22.43 12.36 19.22"/><polygon class="cls-3" points="16.17 14.15 15.8 18.29 12.35 19.22 12.35 22.44 18.69 20.68 18.73 20.16 19.27 14.15 16.17 14.15"/><polygon class="cls-4" points="12.36 4.93 12.36 6.86 12.36 8.02 12.36 8.03 4.9 8.03 4.9 8.03 4.89 8.03 4.83 7.33 4.69 5.76 4.61 4.93 12.36 4.93"/><polygon class="cls-4" points="12.34 11.19 12.34 13.11 12.34 14.27 12.34 14.28 8.96 14.28 8.96 14.28 8.95 14.28 8.88 13.59 8.74 12.02 8.67 11.19 12.34 11.19"/></g></g></svg>