<svg xmlns="http://www.w3.org/2000/svg" viewBox="0 0 24.69 28"><defs><style>.cls-1{fill:#e44f26;}.cls-2{fill:#f1662a;}.cls-3{fill:#ebebeb;}.cls-4{fill:#fff;}</style></defs><title>Asset 1</title><g id="Layer_2" data-name="Layer 2"><g id="Layer_1-2" data-name="Layer 1"><polygon class="cls-1" points="2.25 25.2 0 0 24.69 0 22.44 25.2 12.33 28 2.25 25.2"/><polygon class="cls-2" points="12.35 25.86 20.52 23.59 22.44 2.06 12.35 2.06 12.35 25.86"/><polygon class="cls-3" points="12.35 11.41 8.26 11.41 7.97 8.24 12.35 8.24 12.35 5.15 12.33 5.15 4.59 5.15 4.67 5.98 5.43 14.5 12.35 14.5 12.35 11.41"/><polygon class="cls-3" points="12.35 19.43 12.33 19.44 8.89 18.51 8.67 16.04 7 16.04 5.57 16.04 6 20.9 12.33 22.65 12.35 22.65 12.35 19.43"/><polygon class="cls-4" points="12.33 11.41 12.33 14.5 16.14 14.5 15.78 18.51 12.33 19.44 12.33 22.65 18.67 20.9 18.72 20.37 19.44 12.24 19.52 11.41 18.69 11.41 12.33 11.41"/><polygon class="cls-4" points="12.33 5.15 12.33 7.07 12.33 8.23 12.33 8.24 19.79 8.24 19.79 8.24 19.8 8.24 19.86 7.55 20 5.98 20.08 5.15 12.33 5.15"/></g></g></svg>