<?xml version="1.0" encoding="utf-8"?>
<!-- Generator: Adobe Illustrator 23.1.0, SVG Export Plug-In . SVG Version: 6.00 Build 0)  -->
<svg version="1.1" xmlns="http://www.w3.org/2000/svg" xmlns:xlink="http://www.w3.org/1999/xlink" x="0px" y="0px"
	 viewBox="0 0 124.7 38.9" style="enable-background:new 0 0 124.7 38.9;" xml:space="preserve">
<style type="text/css">
	.st0{display:none;}
	.st1{display:inline;fill:#302020;}
	.st2{fill:#FFFFFF;}
</style>
<g id="Layer_2" class="st0">
	<rect x="-14.8" y="-11.7" class="st1" width="162.2" height="89.1"/>
</g>
<g id="Layer_1">
	<path class="st2" d="M41.8,12.1c1.5-1.4,2.4-1.5,2.4-1.5c0.3,0,0.7,0.1,1,0.2c0.7,0.2,0.7,0.6,0.7,0.6v10.5
		c0.1,2.9-0.6,4.1-1.5,4.9c-0.3,0.2-0.6,0.4-0.9,0.5c-0.1,0-0.2,0-0.2-0.1c0,0,0,0,0,0c0-0.2,0.1-0.4,0.1-0.6
		c0.4-1.1,0.4-3.1,0.4-3.1l0-11.3c0,0,0-0.2-0.1-0.1c-1.7,1.5-1.9,3.6-2,4.6c0,1.5,0.6,2.3,0.6,2.3c0.1,0.1,0.2,0.2,0.1,0.4
		c0,0.1-0.1,0.3-0.2,0.3c0,0,0,0,0,0c-0.6-0.1-1.7-0.8-2.1-1.7c-0.2-0.4-0.3-0.9-0.3-1.4C39.9,14.8,40.7,13.3,41.8,12.1L41.8,12.1z
		 M117.1,22.1c0,3.4-2,3.3-2,3.3c-1.9,0.1-2.4-2-2.6-4.1c-0.1-1.6,0-3.3,0-3.3s0-0.1-0.1,0c-0.7,1.2-1.1,3-1.3,4.4
		c-0.1,0.6-0.2,1.2-0.2,1.9c0,0.1,0,0.2-0.1,0.3c-1.1,0.5-1.7-0.2-2-1c-0.3-0.7-0.5-5.1-0.5-5.3s-0.2-0.1-0.2-0.1
		c-1.5,2.4-1.5,6-1.5,6.8c0,0.7-1.2,0.5-1.2,0.5c-1.1-0.1-1-0.6-1-0.6l0-0.9c-0.4,0.7-1,1.5-2.1,1.5c-1.6-0.1-1.9-1.7-1.9-2
		c0,0-0.8,2-3,2c-1.5,0-2.1-1.5-2.1-1.5s-0.6,1.6-2,1.5c-1.5-0.1-2.7-1.7-2.6-3.9c0-1.1,0.2-2.2,0.4-3.3c0,0,0.1-0.2-0.1-0.2
		c-0.2,0-1.5,0-1.5,0s-0.7,2.8-3.7,6.4l0,2.3c0,2.3-0.3,5.4-3.4,5.7c-2.7-0.2-2.6-2.3-2.6-2.3c-0.1-0.6,0.3-1.8,2-3.3l2.3-2.1
		l-0.1-1c-1,1.7-2.6,1.6-2.6,1.6s-1.2,0.3-2.3-1.6c-0.3,0.6-1,1.7-2.1,1.6c-1.6-0.2-1.9-1.8-1.9-2c0,0-0.8,2.1-3,2
		c-1.5,0-2.1-1.6-2.1-1.6c-0.2-0.3-0.3-0.7-0.4-1.1L69.6,23c-0.3,0.9-1.2,2.4-2.4,2.4c-2.3,0-2.4-3.6-2.4-3.6
		c-0.7,1.6-2,3.7-4.5,3.7s-2.8-0.9-2.8-1c0-0.3,0.1-0.5,0.2-0.7c0.3-0.4,0.5-0.6,0.7-0.6c0.2,0.1,0.4,0.2,0.6,0.3
		c0.3,0.3,0.7,0.5,1.1,0.5c0.8,0,0.9-0.7,1-1.3c0.1-0.6-0.4-1.3-1-1.9l-1.1-1L57,23.2c-1.2,2-2.4,2.3-2.9,2.2
		c-0.6-0.1-1.2-0.7-1.3-2.6l0.1-5.3c0-0.2-0.2-0.1-0.2-0.1c-2.4,2.5-3.1,7.7-3.1,7.8c-0.1,0.2-0.3,0.2-0.4,0.2c-0.2,0,0.1,0-0.8,0
		c-0.8,0-0.8-1.6-0.8-1.6l0.1-7.7c0-0.3,0.3-0.4,1.1-0.2s0.8,0.5,0.8,0.5l0,4.5c2.1-6.1,3.6-5.2,4.6-4.7c0.9,0.5,0.8,1.1,0.8,1.1
		l-0.1,4.6c0,1.2,0.1,1.7,0.4,1.7c0.7,0.2,3-4.4,3-4.4c-1-1.1-0.5-2.5,0.3-3.1c0.4-0.3,0.8-0.4,1.2-0.5c0,0,1.1-0.1,1,0.8
		c0,1-1.1,2.2-1.1,2.2c2.1,1.5,3.1,2.3,3.3,3.5c0,0.3,0,0.6-0.1,0.9c1.5-1.3,1.6-2.8,1.6-2.8l0-4.9l-2.2,0c0,0-0.2,0-0.2-0.4
		c0-0.4,0.1-0.8,0.4-1.1l2.1,0l0.1-2.5c0.1-0.5,0.4-0.6,1.3-0.3c0.9,0.2,0.9,0.5,0.9,0.5L67,13.8l2.6,0.1c0.3,0,0.4,0.1,0.3,0.6
		c0,0.3-0.2,0.5-0.4,0.7L67,15.3L66.8,21c0,0.9,0,2.9,0.9,2.9c1.1,0.1,1.8-2.5,1.8-2.5v0c0-0.5,0-0.9,0.1-1.4
		c0.2-2.1,1.1-4.5,3.2-4.5c0.8,0,1.6,0.5,2,1.2l0-0.5c0,0,0-0.6,0.8-0.4c0.9,0.1,1.2,0.5,1.2,0.8l-0.1,5.7c0.1,1.2,0.3,2,1,1.9
		c0.5-0.1,0.9-0.8,1.2-1.4c-0.8-6.5,2.8-7.3,2.8-7.3s1.6-0.1,2.3,1.2l0-0.4c0,0-0.1-0.6,0.8-0.4c0.2,0,0.5,0.1,0.7,0.2
		c0.4,0.1,0.5,0.2,0.5,0.6L85.8,23c0,0,1.9-2.5,2.3-4.9c-0.4-0.3-0.6-0.7-0.6-1.2c0-0.7,0.4-1.5,1.4-1.5s1.1,0.9,1,1.5
		c0,0,0.9-0.1,1.6-0.3c0.7-0.2,1.7-0.3,1.8,0.9c0,0.3,0,0.5-0.1,0.7c0,0-0.6,2.6-0.5,3.6c0.1,1,0.4,2.6,1.2,2.4
		c0.8-0.2,1.1-1.3,1.1-1.3c-0.2-0.9-0.3-1.9-0.2-2.9c0.2-2,1.1-4.4,3.2-4.4c0.8,0,1.6,0.5,2,1.2l0-0.5c0,0,0-0.6,0.8-0.4
		c0.9,0.1,1.2,0.5,1.2,0.8l-0.1,5.7c0.1,1.2,0.3,1.9,1,1.9s1.1-1,1.4-1.9v-0.3l0-6c0-0.2,0.2-0.3,0.4-0.4l0.7,0.1
		c1,0.2,0.9,0.5,0.9,0.5v3.4c0.8-2.3,1.1-3.2,1.5-3.8c0.3-0.5,1.2-0.2,1.2-0.2s1,0.3,1,1.2c0,1.6,0.2,4.1,0.2,4.1s0,0.1,0.1,0
		c0,0,0,0,0-0.1c0.3-1.7,0.8-3.4,1.5-5c0.4-0.7,1.5-0.2,1.5-0.2c1.3,0.4,1.1,1.2,1.1,1.2c-0.4,6.6,0.4,7,0.9,7.1
		c0.5,0,0.7-0.6,0.8-0.9c0.1-0.3,0.2-0.9,0.3-1.2c0-0.1,0.2-0.3,0.3-0.3C116.9,21.8,117.1,21.9,117.1,22.1L117.1,22.1z M73.3,17.1
		c-0.5,0-1.5,0.3-1.7,3.3c-0.2,3,0.6,3.7,1.3,3.8s1.9-1,1.9-4.1C74.8,16.9,73.3,17.1,73.3,17.1L73.3,17.1z M82.6,17.1
		c-0.5,0-1.6,0.4-1.9,3.3c-0.2,3,0.6,3.8,1.3,3.9c0.7,0.1,1.9-1,1.9-4.2C84,16.8,82.6,17.1,82.6,17.1L82.6,17.1z M84.2,26.3
		c-2.6,2.3-2.9,3.9-2.9,3.9s-0.3,1.3,1,1.4c1.5,0.2,1.8-1.7,1.8-3.3L84.2,26.3L84.2,26.3z M98.6,17.2c-0.5,0-1.5,0.3-1.7,3.3
		c-0.2,3,0.6,3.7,1.3,3.8c0.7,0.1,1.9-1,1.9-4.1C100.1,17,98.6,17.2,98.6,17.2L98.6,17.2z"/>
	<g transform="matrix(.114556 0 0 .114556 .402435 43.321453)">
		<path class="st2" d="M149.3-275.5c-2.2,0-4.4,0.1-6.5,0.3s-4.2,0.5-6.3,1c-2.1,0.4-4.1,1-6.1,1.6l-5.9,2.1l-5.6,2.7l-5.3,3.2
			l-4.9,3.7l-4.5,4.1l-4.1,4.5l-3.7,4.9l-3.2,5.3l-2.7,5.6c-0.8,1.9-1.5,3.9-2.2,5.8c-0.6,2-1.2,4-1.6,6.1c-0.4,2.1-0.8,4.2-1,6.3
			c-0.2,2.1-0.3,4.3-0.3,6.5s0.1,4.4,0.3,6.5c0.2,2.1,0.5,4.2,1,6.3c0.4,2.1,1,4.1,1.6,6.1s1.3,3.9,2.2,5.8l2.7,5.6l3.2,5.3l3.7,4.9
			l4.1,4.5l4.5,4.1l4.9,3.7l5.3,3.2l5.6,2.7l5.9,2.1l6.1,1.6c2.1,0.4,4.2,0.8,6.3,1c2.2,0.2,4.3,0.3,6.5,0.3c2.2,0,4.4-0.1,6.5-0.3
			c2.1-0.2,4.2-0.5,6.3-1l6.1-1.6l5.9-2.1l5.6-2.7l5.3-3.2l4.9-3.7l4.5-4.1l4.1-4.5l3.7-4.9l3.2-5.3l2.7-5.6l2.2-5.8
			c0.6-2,1.2-4,1.6-6.1l1-6.3c0.2-2.1,0.3-4.3,0.3-6.5c0-2.2-0.1-4.4-0.3-6.5c-0.2-2.1-0.5-4.2-1-6.3c-0.4-2.1-1-4.1-1.6-6.1
			l-2.2-5.8l-2.7-5.6l-3.2-5.3l-3.7-4.9l-4.1-4.5l-4.5-4.1l-4.9-3.7l-5.3-3.2l-5.6-2.7l-5.9-2.1l-6.1-1.6l-6.3-1
			C153.6-275.4,151.5-275.5,149.3-275.5L149.3-275.5z M149.3-253.5c1.5,0,2.9,0.1,4.3,0.2l4.2,0.6l4,1l3.8,1.4l3.7,1.8l3.4,2.1
			l3.2,2.4l3,2.7l2.7,3l2.4,3.2l2.1,3.4l1.8,3.7c0.5,1.2,1,2.5,1.4,3.8c0.4,1.3,0.7,2.6,1,4c0.3,1.4,0.5,2.8,0.6,4.2l0.2,4.3
			c0,1.4-0.1,2.9-0.2,4.3s-0.4,2.8-0.6,4.2c-0.3,1.4-0.6,2.7-1,4l-1.4,3.8l-1.8,3.7l-2.1,3.4l-2.4,3.2l-2.7,3l-3,2.7l-3.2,2.4
			l-3.4,2.1l-3.7,1.8l-3.8,1.4l-4,1l-4.2,0.6c-1.4,0.1-2.9,0.2-4.3,0.2c-1.4,0-2.9-0.1-4.3-0.2l-4.2-0.6c-1.4-0.3-2.7-0.6-4-1
			l-3.8-1.4l-3.7-1.8l-3.4-2.1l-3.2-2.4l-3-2.7l-2.7-3l-2.4-3.2l-2.1-3.4l-1.8-3.7l-1.4-3.8l-1-4l-0.6-4.2c-0.1-1.4-0.2-2.9-0.2-4.3
			c0-1.4,0.1-2.9,0.2-4.3c0.1-1.4,0.4-2.8,0.6-4.2c0.3-1.4,0.6-2.7,1-4l1.4-3.8l1.8-3.7l2.1-3.4l2.4-3.2l2.7-3l3-2.7l3.2-2.4
			l3.4-2.1l3.7-1.8c1.3-0.5,2.5-1,3.8-1.4l4-1c1.4-0.3,2.8-0.5,4.2-0.6C146.4-253.4,147.9-253.5,149.3-253.5L149.3-253.5z"/>
		<path class="st2" d="M215.7-293.6c-0.5,0-1,0-1.5,0.1c-0.5,0.1-1,0.1-1.5,0.2c-0.5,0.1-1,0.2-1.5,0.4c-0.5,0.2-1,0.3-1.4,0.5
			c-0.5,0.2-0.9,0.4-1.4,0.7c-0.4,0.2-0.9,0.5-1.3,0.8c-0.4,0.3-0.8,0.6-1.2,0.9c-0.4,0.3-0.8,0.7-1.1,1c-0.4,0.4-0.7,0.7-1,1.1
			c-0.3,0.4-0.6,0.8-0.9,1.2c-0.3,0.4-0.5,0.9-0.8,1.3c-0.2,0.5-0.4,0.9-0.6,1.4c-0.2,0.5-0.3,1-0.5,1.5c-0.1,0.5-0.2,1-0.3,1.5
			c-0.1,0.5-0.1,1-0.2,1.5c0,0.4,0,0.7,0,1.1c0,0.5,0,1,0.1,1.5c0.1,0.5,0.1,1,0.2,1.5c0.1,0.5,0.2,1,0.4,1.5c0.1,0.5,0.3,1,0.5,1.4
			c0.2,0.5,0.4,0.9,0.7,1.4c0.2,0.4,0.5,0.9,0.8,1.3c0.3,0.4,0.6,0.8,0.9,1.2c0.3,0.4,0.7,0.8,1,1.1c0.4,0.4,0.7,0.7,1.1,1
			c0.4,0.3,0.8,0.6,1.2,0.9c0.4,0.3,0.9,0.5,1.3,0.8c0.5,0.2,0.9,0.4,1.4,0.6c0.5,0.2,1,0.3,1.4,0.5c0.5,0.1,1,0.2,1.5,0.3
			c0.5,0.1,1,0.1,1.5,0.2c0.4,0,0.7,0,1.1,0c0.5,0,1,0,1.5-0.1c0.5-0.1,1-0.1,1.5-0.2c0.5-0.1,1-0.2,1.5-0.4c0.5-0.2,1-0.3,1.4-0.5
			c0.5-0.2,0.9-0.4,1.4-0.7c0.4-0.2,0.9-0.5,1.3-0.8c0.4-0.3,0.8-0.6,1.2-0.9c0.4-0.3,0.8-0.7,1.1-1c0.4-0.4,0.7-0.7,1-1.1
			c0.3-0.4,0.6-0.8,0.9-1.2c0.3-0.4,0.5-0.9,0.8-1.3c0.2-0.5,0.4-0.9,0.6-1.4c0.2-0.5,0.3-1,0.5-1.5c0.1-0.5,0.2-1,0.3-1.5
			c0.1-0.5,0.1-1,0.2-1.5c0-0.4,0-0.7,0-1.1c0-0.5,0-1-0.1-1.5c-0.1-0.5-0.1-1-0.2-1.5c-0.1-0.5-0.2-1-0.4-1.5
			c-0.1-0.5-0.3-1-0.5-1.4c-0.2-0.5-0.4-0.9-0.7-1.4c-0.2-0.4-0.5-0.9-0.8-1.3c-0.3-0.4-0.6-0.8-0.9-1.2c-0.3-0.4-0.7-0.8-1-1.1
			c-0.4-0.4-0.7-0.7-1.1-1c-0.4-0.3-0.8-0.6-1.2-0.9c-0.4-0.3-0.9-0.5-1.3-0.8c-0.5-0.2-0.9-0.4-1.4-0.6c-0.5-0.2-1-0.3-1.4-0.5
			c-0.5-0.1-1-0.2-1.5-0.3c-0.5-0.1-1-0.1-1.5-0.2C216.4-293.6,216-293.6,215.7-293.6L215.7-293.6z"/>
		<path class="st2" d="M137.2-336.4c-6.9,0-13.1,0-18.7,0.1l-14.9,0.4c-4.4,0.2-8.3,0.4-11.8,0.8c-1.8,0.2-3.4,0.3-5,0.5
			c-1.5,0.2-3,0.4-4.5,0.7c-1.4,0.2-2.7,0.5-4,0.8c-1.3,0.3-2.5,0.6-3.7,0.9c-1.2,0.3-2.3,0.7-3.4,1.1c-1.1,0.4-2.2,0.8-3.3,1.2
			c-2.1,0.9-4.2,1.8-6.4,2.9c-1.7,0.8-3.2,1.7-4.6,2.5c-1.5,0.9-2.8,1.8-4.2,2.8c-1.4,1.1-2.7,2.2-4,3.3c-1.3,1.2-2.7,2.6-4.1,4.1
			c-1.8,1.9-3.3,3.6-4.7,5.4c-0.7,0.9-1.3,1.7-1.9,2.6c-0.6,0.8-1.2,1.7-1.7,2.6c-0.5,0.9-1.1,1.8-1.6,2.7c-0.5,0.9-1,1.9-1.4,2.8
			c-0.9,2-1.8,4.1-2.6,6.4c-0.6,1.7-1.2,3.5-1.7,5.3c-0.5,1.8-1,3.7-1.4,5.8c-0.4,2.1-0.8,4.3-1.1,6.7c-0.3,2.7-0.6,5.4-0.8,8.1
			c-0.2,3-0.4,6.2-0.6,9.8l-0.4,12.1l-0.2,14.7l-0.1,17.8l0.2,25.8l0.5,19.6l0.4,7.6l0.5,6.3c0.2,1.7,0.4,3.4,0.6,5.1
			c0.2,1.5,0.4,2.8,0.7,4c0.5,2.3,1.1,4.6,1.8,6.9c0.7,2.2,1.4,4.3,2.3,6.4c0.8,2.1,1.7,4.1,2.7,6c1,1.9,2.1,3.8,3.2,5.5
			s2.4,3.5,3.7,5.1c1.3,1.6,2.7,3.2,4.2,4.7c1.5,1.5,3,2.9,4.7,4.2c1.7,1.4,3.4,2.6,5.2,3.8c1.7,1.1,3.3,2.1,4.9,3.1
			c1.7,0.9,3.3,1.8,5,2.5c1.7,0.8,3.5,1.5,5.3,2.1c1.8,0.6,3.7,1.2,5.8,1.7c2,0.5,4.2,0.9,6.4,1.3c2.3,0.4,4.7,0.7,7.3,1
			s5.3,0.5,8.3,0.7c3,0.2,6.1,0.3,9.5,0.5c5.3,0.2,13.2,0.3,22.4,0.3l29.7-0.1l28.1-0.4l10.7-0.3l7-0.4c1.5-0.1,3-0.3,4.4-0.4
			c1.4-0.2,2.8-0.4,4.2-0.6c1.4-0.2,2.7-0.5,4-0.7c1.3-0.3,2.6-0.6,3.8-0.9c1.3-0.3,2.5-0.7,3.7-1.1c1.2-0.4,2.4-0.8,3.7-1.3
			c1.2-0.5,2.4-0.9,3.6-1.4c1.2-0.5,2.4-1.1,3.6-1.6c1.8-0.9,3.3-1.6,4.6-2.4c1.2-0.7,2.4-1.4,3.5-2.3c1.1-0.8,2.2-1.8,3.5-2.9
			s2.7-2.6,4.5-4.4c1.6-1.6,2.9-2.9,4.1-4.2c1.1-1.2,2.1-2.4,3-3.4c0.8-1,1.6-2.1,2.3-3.2c0.7-1.1,1.3-2.2,1.9-3.4
			c1-1.9,1.8-3.6,2.6-5.3c0.7-1.6,1.4-3.2,2-4.9c0.6-1.7,1.1-3.3,1.6-5c0.5-1.8,0.8-3.6,1.2-5.6s0.6-4.2,0.9-6.7
			c0.2-2.5,0.5-5.2,0.6-8.2l0.5-10.3l0.4-12.8l0.3-14.2l0.1-14.9l-0.3-29.2l-0.4-13.1l-0.5-11.2l-0.6-8.8c-0.2-2.4-0.5-4.4-0.7-5.7
			c-0.3-1.4-0.6-2.9-0.9-4.3c-0.3-1.4-0.7-2.8-1.1-4.1c-0.4-1.3-0.8-2.6-1.3-4c-0.5-1.3-0.9-2.6-1.4-3.8s-1-2.4-1.6-3.6
			c-0.6-1.2-1.2-2.3-1.8-3.5c-0.6-1.1-1.3-2.2-2-3.3c-0.7-1.1-1.4-2.1-2.1-3.1c-0.7-1-1.5-2-2.3-3c-0.8-1-1.6-1.9-2.5-2.8
			c-0.8-0.9-1.7-1.8-2.6-2.6c-0.9-0.9-1.8-1.7-2.8-2.5c-1-0.8-2-1.6-3-2.3c-1-0.7-2.1-1.5-3.1-2.1c-1.1-0.7-2.2-1.4-3.3-2
			c-1.1-0.6-2.3-1.2-3.5-1.8c-2-0.9-3.8-1.8-5.5-2.5c-1.7-0.7-3.5-1.4-5.3-2c-1.8-0.6-3.7-1.1-5.8-1.5c-2.1-0.4-4.3-0.8-6.9-1.1
			c-2.6-0.3-5.4-0.5-8.7-0.7s-7-0.4-11.2-0.5l-14.3-0.3l-18.1-0.2L137.2-336.4L137.2-336.4z M149.2-314.4l33.4,0.2l12.6,0.2
			c3.5,0.1,6.1,0.2,7.7,0.3c2,0.2,3.9,0.4,5.8,0.6c1.8,0.2,3.5,0.5,5.3,0.9c1.7,0.4,3.3,0.8,4.8,1.2c1.5,0.5,3,1,4.4,1.5
			s2.7,1.2,4,1.8c1.3,0.7,2.5,1.4,3.7,2.2c1.2,0.8,2.4,1.7,3.5,2.6c1.1,0.9,2.2,1.9,3.3,3c1.1,1.1,2.2,2.3,3.1,3.4
			c0.9,1.2,1.8,2.4,2.6,3.7c0.8,1.3,1.5,2.6,2.2,4c0.7,1.4,1.3,2.9,1.8,4.5s1,3.3,1.4,5.1c0.4,1.9,0.8,3.8,1.1,5.7
			c0.3,2,0.6,4.2,0.8,6.6c0.2,2.3,0.4,4.8,0.6,7.5c0.1,2.1,0.2,5,0.3,8.3l0.2,11.4l0.2,27.8l-0.2,27.8l-0.2,11.3l-0.3,8.2
			c-0.2,3.9-0.5,7.1-0.8,9.9c-0.1,1.4-0.3,2.7-0.5,3.9c-0.2,1.2-0.4,2.3-0.6,3.5c-0.2,1-0.4,2.1-0.7,3.1c-0.3,1-0.6,2-0.9,2.9
			c-0.3,1-0.7,1.9-1.1,2.9c-0.4,1-0.8,2-1.3,3c-0.4,0.9-0.8,1.7-1.3,2.6c-0.4,0.8-0.9,1.6-1.4,2.4c-0.5,0.8-1,1.5-1.6,2.3
			c-0.5,0.7-1.1,1.4-1.7,2.1c-0.6,0.7-1.2,1.4-1.8,2c-0.6,0.6-1.3,1.3-2,1.9s-1.4,1.2-2.1,1.7c-0.7,0.6-1.5,1.1-2.3,1.6
			c-0.8,0.5-1.6,1-2.4,1.5c-0.8,0.5-1.7,0.9-2.6,1.3c-0.9,0.4-1.8,0.8-2.8,1.2c-1,0.4-1.9,0.7-2.9,1.1c-2,0.7-4.1,1.3-6.3,1.8
			c-2.3,0.5-4.6,1-7,1.3c-0.9,0.1-3,0.3-6,0.4l-11.3,0.3l-32.1,0.4l-33.6,0.1l-13.2-0.1l-8.6-0.3l-6.3-0.4c-2-0.2-3.8-0.3-5.5-0.6
			c-1.7-0.2-3.3-0.4-4.8-0.7c-1.4-0.2-2.8-0.5-4.2-0.9c-1.3-0.3-2.5-0.7-3.8-1.1c-1.2-0.4-2.4-0.8-3.5-1.3c-1.1-0.5-2.2-1-3.3-1.6
			c-1.1-0.6-2.1-1.2-3.2-1.9c-0.8-0.5-1.6-1-2.4-1.6c-0.8-0.6-1.5-1.1-2.2-1.7c-0.7-0.6-1.4-1.2-2-1.8c-0.6-0.6-1.3-1.2-1.9-1.9
			c-0.6-0.7-1.2-1.3-1.7-2c-0.6-0.7-1.1-1.4-1.6-2.2c-0.5-0.7-1-1.5-1.4-2.3c-0.5-0.8-0.9-1.6-1.3-2.5c-0.4-0.9-0.8-1.7-1.2-2.6
			c-0.4-0.9-0.7-1.8-1-2.8c-0.7-1.9-1.2-4-1.7-6.1c-0.5-2.2-0.9-4.5-1.3-7c-0.4-2.5-0.7-5.1-0.9-7.9c-0.2-2-0.3-5.2-0.4-9.3
			l-0.2-14.3l0.1-36.5l0.6-34.9l0.5-12.3l0.3-4.1c0.1-1.1,0.2-1.9,0.3-2.4c0.3-1.6,0.7-3.1,1-4.4c0.3-1.3,0.7-2.6,1.1-3.9
			c0.4-1.2,0.8-2.3,1.2-3.4c0.4-1,0.9-2.1,1.4-3.1c0.5-1,1-1.9,1.6-2.8c0.6-0.9,1.2-1.8,1.8-2.7c0.7-0.9,1.4-1.7,2.2-2.6
			c0.8-0.9,1.6-1.8,2.5-2.7c1.1-1.1,2.2-2.1,3.3-3.1c1.1-0.9,2.2-1.8,3.4-2.6c1.2-0.8,2.3-1.5,3.6-2.2c1.2-0.7,2.5-1.2,3.9-1.8
			c1.3-0.5,2.8-1,4.3-1.4c1.6-0.4,3.2-0.8,4.8-1.1c1.7-0.3,3.5-0.6,5.4-0.9s3.9-0.5,6.1-0.7c1.5-0.1,4.1-0.2,7.6-0.3l12.5-0.2
			L149.2-314.4L149.2-314.4z"/>
	</g>
</g>
</svg>
